<svg id="visual" viewBox="0 0 900 450" width="900" height="450" xmlns="http://www.w3.org/2000/svg" xmlns:xlink="http://www.w3.org/1999/xlink" version="1.1"><rect x="0" y="0" width="900" height="450" fill="#001220"></rect><defs><linearGradient id="grad1_0" x1="50%" y1="0%" x2="100%" y2="100%"><stop offset="10%" stop-color="#0066ff" stop-opacity="1"></stop><stop offset="90%" stop-color="#0066ff" stop-opacity="1"></stop></linearGradient></defs><defs><linearGradient id="grad1_1" x1="50%" y1="0%" x2="100%" y2="100%"><stop offset="10%" stop-color="#0066ff" stop-opacity="1"></stop><stop offset="90%" stop-color="#0055c6" stop-opacity="1"></stop></linearGradient></defs><defs><linearGradient id="grad1_2" x1="50%" y1="0%" x2="100%" y2="100%"><stop offset="10%" stop-color="#00408b" stop-opacity="1"></stop><stop offset="90%" stop-color="#0055c6" stop-opacity="1"></stop></linearGradient></defs><defs><linearGradient id="grad1_3" x1="50%" y1="0%" x2="100%" y2="100%"><stop offset="10%" stop-color="#00408b" stop-opacity="1"></stop><stop offset="90%" stop-color="#002a53" stop-opacity="1"></stop></linearGradient></defs><defs><linearGradient id="grad1_4" x1="50%" y1="0%" x2="100%" y2="100%"><stop offset="10%" stop-color="#001220" stop-opacity="1"></stop><stop offset="90%" stop-color="#002a53" stop-opacity="1"></stop></linearGradient></defs><defs><linearGradient id="grad2_0" x1="0%" y1="0%" x2="50%" y2="100%"><stop offset="10%" stop-color="#0066ff" stop-opacity="1"></stop><stop offset="90%" stop-color="#0066ff" stop-opacity="1"></stop></linearGradient></defs><defs><linearGradient id="grad2_1" x1="0%" y1="0%" x2="50%" y2="100%"><stop offset="10%" stop-color="#0055c6" stop-opacity="1"></stop><stop offset="90%" stop-color="#0066ff" stop-opacity="1"></stop></linearGradient></defs><defs><linearGradient id="grad2_2" x1="0%" y1="0%" x2="50%" y2="100%"><stop offset="10%" stop-color="#0055c6" stop-opacity="1"></stop><stop offset="90%" stop-color="#00408b" stop-opacity="1"></stop></linearGradient></defs><defs><linearGradient id="grad2_3" x1="0%" y1="0%" x2="50%" y2="100%"><stop offset="10%" stop-color="#002a53" stop-opacity="1"></stop><stop offset="90%" stop-color="#00408b" stop-opacity="1"></stop></linearGradient></defs><defs><linearGradient id="grad2_4" x1="0%" y1="0%" x2="50%" y2="100%"><stop offset="10%" stop-color="#002a53" stop-opacity="1"></stop><stop offset="90%" stop-color="#001220" stop-opacity="1"></stop></linearGradient></defs><g transform="translate(900, 0)"><path d="M0 382.5C-24.4 373.7 -48.9 364.9 -69.8 351.1C-90.8 337.3 -108.3 318.5 -127.4 307.7C-146.6 296.8 -167.4 293.9 -195 291.8C-222.6 289.8 -257.1 288.6 -265.9 265.9C-274.6 243.1 -257.7 198.8 -257.8 172.2C-257.8 145.6 -274.7 136.8 -300.3 124.4C-325.8 111.9 -360 95.9 -375.2 74.6C-390.3 53.3 -386.4 26.6 -382.5 0L0 0Z" fill="#001e39"></path><path d="M0 306C-19.6 299 -39.1 291.9 -55.9 280.9C-72.6 269.9 -86.6 254.8 -101.9 246.1C-117.3 237.4 -133.9 235.1 -156 233.5C-178.1 231.8 -205.7 230.9 -212.7 212.7C-219.7 194.5 -206.2 159 -206.2 137.8C-206.2 116.5 -219.8 109.4 -240.2 99.5C-260.7 89.6 -288 76.8 -300.1 59.7C-312.2 42.6 -309.1 21.3 -306 0L0 0Z" fill="#00356f"></path><path d="M0 229.5C-14.7 224.2 -29.3 219 -41.9 210.7C-54.5 202.4 -65 191.1 -76.5 184.6C-87.9 178.1 -100.4 176.3 -117 175.1C-133.6 173.9 -154.3 173.2 -159.5 159.5C-164.8 145.9 -154.6 119.3 -154.7 103.3C-154.7 87.4 -164.8 82.1 -180.2 74.6C-195.5 67.2 -216 57.6 -225.1 44.8C-234.2 32 -231.8 16 -229.5 0L0 0Z" fill="#004ba9"></path><path d="M0 153C-9.8 149.5 -19.6 146 -27.9 140.4C-36.3 134.9 -43.3 127.4 -51 123.1C-58.6 118.7 -67 117.6 -78 116.7C-89.1 115.9 -102.8 115.4 -106.3 106.3C-109.9 97.2 -103.1 79.5 -103.1 68.9C-103.1 58.3 -109.9 54.7 -120.1 49.7C-130.3 44.8 -144 38.4 -150.1 29.8C-156.1 21.3 -154.6 10.7 -153 0L0 0Z" fill="#005ee3"></path><path d="M0 76.5C-4.9 74.7 -9.8 73 -14 70.2C-18.2 67.5 -21.7 63.7 -25.5 61.5C-29.3 59.4 -33.5 58.8 -39 58.4C-44.5 58 -51.4 57.7 -53.2 53.2C-54.9 48.6 -51.5 39.8 -51.6 34.4C-51.6 29.1 -54.9 27.4 -60.1 24.9C-65.2 22.4 -72 19.2 -75 14.9C-78.1 10.7 -77.3 5.3 -76.5 0L0 0Z" fill="#0066ff"></path></g><g transform="translate(0, 450)"><path d="M0 -382.5C23.5 -373.8 47 -365.2 71.6 -359.9C96.2 -354.7 121.9 -352.9 139.3 -336.3C156.7 -319.7 165.8 -288.3 180.6 -270.2C195.3 -252.1 215.7 -247.3 241.8 -241.8C267.9 -236.4 299.8 -230.2 318 -212.5C336.3 -194.8 341 -165.4 332.6 -137.8C324.2 -110.1 302.8 -84.1 308.9 -61.5C315.1 -38.8 348.8 -19.4 382.5 0L0 0Z" fill="#001e39"></path><path d="M0 -306C18.8 -299.1 37.6 -292.1 57.3 -288C77 -283.8 97.5 -282.3 111.4 -269C125.4 -255.8 132.6 -230.7 144.4 -216.2C156.3 -201.7 172.6 -197.8 193.5 -193.5C214.4 -189.1 239.8 -184.2 254.4 -170C269 -155.8 272.8 -132.3 266.1 -110.2C259.4 -88.1 242.2 -67.3 247.2 -49.2C252.1 -31 279 -15.5 306 0L0 0Z" fill="#00356f"></path><path d="M0 -229.5C14.1 -224.3 28.2 -219.1 43 -216C57.7 -212.8 73.1 -211.7 83.6 -201.8C94 -191.8 99.5 -173 108.3 -162.1C117.2 -151.3 129.4 -148.4 145.1 -145.1C160.8 -141.8 179.9 -138.1 190.8 -127.5C201.8 -116.9 204.6 -99.3 199.6 -82.7C194.5 -66.1 181.7 -50.5 185.4 -36.9C189.1 -23.3 209.3 -11.6 229.5 0L0 0Z" fill="#004ba9"></path><path d="M0 -153C9.4 -149.5 18.8 -146.1 28.6 -144C38.5 -141.9 48.8 -141.2 55.7 -134.5C62.7 -127.9 66.3 -115.3 72.2 -108.1C78.1 -100.9 86.3 -98.9 96.7 -96.7C107.2 -94.5 119.9 -92.1 127.2 -85C134.5 -77.9 136.4 -66.2 133 -55.1C129.7 -44 121.1 -33.7 123.6 -24.6C126 -15.5 139.5 -7.8 153 0L0 0Z" fill="#005ee3"></path><path d="M0 -76.5C4.7 -74.8 9.4 -73 14.3 -72C19.2 -70.9 24.4 -70.6 27.9 -67.3C31.3 -63.9 33.2 -57.7 36.1 -54C39.1 -50.4 43.1 -49.5 48.4 -48.4C53.6 -47.3 60 -46 63.6 -42.5C67.3 -39 68.2 -33.1 66.5 -27.6C64.8 -22 60.6 -16.8 61.8 -12.3C63 -7.8 69.8 -3.9 76.5 0L0 0Z" fill="#0066ff"></path></g></svg>